#N canvas 338 173 463 504 10;
#X declare -lib iemlib;
#X declare -lib cyclone;
#X obj 193 262 textfile;
#X msg 220 224 read data/formant\$1.txt \, rewind;
#X obj 193 193 t b f;
#X floatatom 39 141 5 0 500 2 Base_Freq base-freq -;
#X floatatom 106 141 5 0 100 2 Pulse_Width pulse-width -;
#X obj 112 354 hip~ 100;
#X floatatom 193 304 5 0 2 2 Formant_Base formant-base -;
#X obj 43 261 lp5_butt~ 5000 200;
#X obj 193 165 int;
#X msg 314 366 \; base-freq 57 \; pulse-width 21 \; vowel 1 \; formant-base
1 \;;
#X obj 314 333 loadbang;
#X obj 112 328 forfil3;
#N canvas 83 342 346 239 pulsegen 0;
#X obj 85 36 inlet;
#X obj 173 36 inlet;
#X obj 85 75 phasor~;
#X obj 86 114 expr~ $v1 > $v2;
#X obj 86 145 expr~ ($v1 - 0.5) *2;
#X obj 173 75 expr 1-($f1/100);
#X obj 86 181 outlet~;
#X connect 0 0 2 0;
#X connect 1 0 5 0;
#X connect 2 0 3 0;
#X connect 3 0 4 0;
#X connect 4 0 6 0;
#X connect 5 0 3 1;
#X restore 84 178 pd pulsegen;
#X text 35 -13 A speech formant synthesizer by Jim Qode;
#X text 317 80 1- a;
#X text 317 125 4- i;
#X text 361 110 7- u;
#X text 35 17 The vowels are Turkish vowels \, but they can be easily
customized using the text files in data directory. The text files have
the center frequency \, Q and amplitude data for 3 formant filters.
Much of the stuff is happening in forfil3 abstraction. Pulsegen can
be switched with a noise~ object for an annoying whispering voice.
;
#X obj 318 276 declare -lib iemlib;
#X obj 318 299 declare -lib cyclone;
#X obj 111 382 out~;
#X text 317 95 2- é;
#X text 317 110 3- e;
#X obj 24 183 noise~;
#X text 361 95 6- o;
#X text 361 80 5- ó;
#X obj 193 125 hradio 15 1 0 7 empty empty a__é__e_i__ó_o__u 0 -8
0 10 -262144 -1 -1 3;
#X connect 0 0 11 1;
#X connect 1 0 0 0;
#X connect 2 0 0 0;
#X connect 2 1 1 0;
#X connect 3 0 12 0;
#X connect 3 0 23 0;
#X connect 4 0 12 1;
#X connect 5 0 20 1;
#X connect 5 0 20 0;
#X connect 6 0 11 2;
#X connect 7 0 11 0;
#X connect 8 0 2 0;
#X connect 10 0 9 0;
#X connect 11 0 5 0;
#X connect 12 0 7 0;
#X connect 26 0 8 0;
